<svg version="1.0" xmlns="http://www.w3.org/2000/svg"
     width="359pt" height="262pt" viewBox="0 0 359 262"
     preserveAspectRatio="xMidYMid meet">
    <defs>
        <mask id="diamond-mask">
            <rect width="100%" height="100%" fill="white"/>
            <g transform="translate(0.000000,262.000000) scale(0.100000,-0.100000)"
               fill="black" stroke="none">
                <path d="M0 1310 l0 -1310 1795 0 1795 0 0 1310 0 1310 -1795 0 -1795 0 0
-1310z m3112 1002 c213 -248 438 -522 438 -534 0 -19 -280 -307 -975 -1005
-401 -403 -736 -733 -742 -733 -20 0 -277 246 -753 721 -699 698 -990 998
-990 1025 0 18 89 125 549 666 l66 77 1110 0 1110 0 187 -217z"/>
                <path d="M1604 2302 c-340 -398 -394 -462 -394 -467 0 -3 35 -5 79 -5 l78 0
167 286 c92 157 166 288 164 289 -2 2 -44 -45 -94 -103z"/>
                <path d="M763 2347 c-86 -89 -403 -479 -403 -494 0 -14 201 -23 507 -23 197 0
263 3 263 12 0 13 -307 535 -319 543 -4 2 -26 -15 -48 -38z"/>
                <path d="M1940 2370 c9 -14 85 -141 170 -282 l153 -258 46 0 c53 0 91 9 91 20
0 22 -422 512 -462 536 -9 6 -8 0 2 -16z"/>
                <path d="M2763 2303 c-32 -48 -106 -171 -165 -273 l-107 -185 396 -3 c218 -1
398 0 401 2 7 8 -446 546 -460 546 -5 0 -34 -39 -65 -87z"/>
                <path d="M410 1662 c0 -13 1274 -1293 1286 -1292 7 0 -40 118 -103 263 -64
144 -189 433 -279 642 l-163 380 -188 6 c-285 10 -553 10 -553 1z"/>
                <path d="M1375 1663 c-16 -2 -33 -8 -38 -12 -8 -8 464 -1316 482 -1334 15 -15
26 15 162 413 233 682 311 921 304 928 -8 8 -863 13 -910 5z"/>
                <path d="M2471 1648 c-5 -13 -42 -104 -84 -203 -41 -99 -134 -322 -206 -496
-72 -173 -158 -378 -192 -455 -33 -76 -63 -146 -66 -154 -3 -8 292 284 656
650 363 366 660 668 661 673 0 4 -171 7 -380 7 l-380 0 -9 -22z"/>
            </g>
        </mask>
    </defs>
    <rect width="100%" height="100%" fill="#FFFFFF" mask="url(#diamond-mask)"/>
</svg>
